# Blender v2.81 (sub 16) OBJ File: 'caixa.blend'
# www.blender.org
mtllib caixa.mtl
o Cube
v 2.271922 -1.000000 -1.000000
v 2.271922 -1.000000 1.000000
v -2.271922 -1.000000 1.000000
v -2.271921 -1.000000 -1.000000
v 2.271923 1.000000 -0.999999
v 2.271920 1.000000 1.000001
v -2.271923 1.000000 1.000000
v -2.271922 1.000000 -1.000000
vt 0.763304 0.002888
vt 0.763095 0.245455
vt 0.231334 0.248868
vt 0.231339 0.000229
vt 0.767242 0.745033
vt 0.240140 0.745850
vt 0.238777 0.503579
vt 0.762896 0.506345
vt 0.001799 0.503190
vt 0.236862 0.504415
vt 0.234662 0.739311
vt 0.001731 0.752908
vt 0.759490 0.504187
vt 0.764096 0.262199
vt 0.232403 0.252413
vt 0.234085 0.500413
vt 0.998938 0.744386
vt 0.770758 0.745049
vt 0.770829 0.500879
vt 0.998861 0.501216
vt 0.768647 0.752779
vt 0.766895 1.006230
vt 0.242242 1.004322
vt 0.240461 0.749212
vn 0.0000 -1.0000 0.0000
vn 0.0000 1.0000 0.0000
vn 1.0000 0.0000 0.0000
vn -0.0000 -0.0000 1.0000
vn -1.0000 -0.0000 -0.0000
vn 0.0000 0.0000 -1.0000
usemtl Material
s off
f 1/1/1 2/2/1 3/3/1 4/4/1
f 5/5/2 8/6/2 7/7/2 6/8/2
f 1/9/3 5/10/3 6/11/3 2/12/3
f 2/13/4 6/14/4 7/15/4 3/16/4
f 3/17/5 7/18/5 8/19/5 4/20/5
f 5/21/6 1/22/6 4/23/6 8/24/6
l 1 2
l 1 4
l 1 5
l 2 3
l 2 6
l 3 4
l 3 7
l 4 8
l 5 6
l 5 8
l 6 7
l 7 8
